<svg width="80" height="80" viewBox="0 0 80 80" fill="none" xmlns="http://www.w3.org/2000/svg">
<rect width="80" height="80" rx="16" fill="#EBF5FF"/>
<path d="M33.3359 29.583C32.6526 29.583 32.0859 29.0163 32.0859 28.333V23.333C32.0859 22.6497 32.6526 22.083 33.3359 22.083C34.0193 22.083 34.5859 22.6497 34.5859 23.333V28.333C34.5859 29.0163 34.0193 29.583 33.3359 29.583Z" fill="#194165"/>
<path d="M46.6641 29.583C45.9807 29.583 45.4141 29.0163 45.4141 28.333V23.333C45.4141 22.6497 45.9807 22.083 46.6641 22.083C47.3474 22.083 47.9141 22.6497 47.9141 23.333V28.333C47.9141 29.0163 47.3474 29.583 46.6641 29.583Z" fill="#194165"/>
<path d="M34.1667 44.1669C33.95 44.1669 33.7333 44.1169 33.5333 44.0335C33.3167 43.9502 33.15 43.8335 32.9833 43.6835C32.6833 43.3668 32.5 42.9502 32.5 42.5002C32.5 42.2835 32.55 42.0669 32.6333 41.8669C32.7167 41.6669 32.8333 41.4835 32.9833 41.3169C33.15 41.1669 33.3167 41.0502 33.5333 40.9668C34.1333 40.7168 34.8833 40.8502 35.35 41.3169C35.65 41.6335 35.8333 42.0669 35.8333 42.5002C35.8333 42.6002 35.8167 42.7169 35.8 42.8335C35.7833 42.9335 35.75 43.0335 35.7 43.1335C35.6667 43.2335 35.6167 43.3335 35.55 43.4335C35.5 43.5169 35.4167 43.6002 35.35 43.6835C35.0333 43.9835 34.6 44.1669 34.1667 44.1669Z" fill="#194165"/>
<path d="M40.0026 44.1665C39.7859 44.1665 39.5693 44.1165 39.3693 44.0331C39.1526 43.9498 38.9859 43.8331 38.8193 43.6831C38.5193 43.3664 38.3359 42.9498 38.3359 42.4998C38.3359 42.2831 38.3859 42.0664 38.4693 41.8664C38.5526 41.6664 38.6693 41.4831 38.8193 41.3165C38.9859 41.1665 39.1526 41.0498 39.3693 40.9664C39.9693 40.6998 40.7193 40.8498 41.1859 41.3165C41.4859 41.6331 41.6693 42.0665 41.6693 42.4998C41.6693 42.5998 41.6526 42.7165 41.6359 42.8331C41.6193 42.9331 41.5859 43.0331 41.5359 43.1331C41.5026 43.2331 41.4526 43.3331 41.3859 43.4331C41.3359 43.5165 41.2526 43.5998 41.1859 43.6831C40.8693 43.9831 40.4359 44.1665 40.0026 44.1665Z" fill="#194165"/>
<path d="M45.8307 44.1665C45.6141 44.1665 45.3974 44.1165 45.1974 44.0331C44.9807 43.9498 44.8141 43.8331 44.6474 43.6831C44.5807 43.5998 44.5141 43.5165 44.4474 43.4331C44.3807 43.3331 44.3307 43.2331 44.2974 43.1331C44.2474 43.0331 44.2141 42.9331 44.1974 42.8331C44.1807 42.7165 44.1641 42.5998 44.1641 42.4998C44.1641 42.0665 44.3474 41.6331 44.6474 41.3165C44.8141 41.1665 44.9807 41.0498 45.1974 40.9664C45.8141 40.6998 46.5474 40.8498 47.0141 41.3165C47.3141 41.6331 47.4974 42.0665 47.4974 42.4998C47.4974 42.5998 47.4807 42.7165 47.4641 42.8331C47.4474 42.9331 47.4141 43.0331 47.3641 43.1331C47.3307 43.2331 47.2807 43.3331 47.2141 43.4331C47.1641 43.5165 47.0807 43.5998 47.0141 43.6831C46.6974 43.9831 46.2641 44.1665 45.8307 44.1665Z" fill="#194165"/>
<path d="M34.1667 50C33.95 50 33.7333 49.95 33.5333 49.8667C33.3333 49.7833 33.15 49.6666 32.9833 49.5166C32.6833 49.2 32.5 48.7667 32.5 48.3333C32.5 48.1167 32.55 47.9 32.6333 47.7C32.7167 47.4833 32.8333 47.3 32.9833 47.15C33.6 46.5333 34.7333 46.5333 35.35 47.15C35.65 47.4667 35.8333 47.9 35.8333 48.3333C35.8333 48.7667 35.65 49.2 35.35 49.5166C35.0333 49.8166 34.6 50 34.1667 50Z" fill="#194165"/>
<path d="M40.0026 50C39.5693 50 39.1359 49.8166 38.8193 49.5166C38.5193 49.2 38.3359 48.7667 38.3359 48.3333C38.3359 48.1167 38.3859 47.9 38.4693 47.7C38.5526 47.4833 38.6693 47.3 38.8193 47.15C39.4359 46.5333 40.5693 46.5333 41.1859 47.15C41.3359 47.3 41.4526 47.4833 41.5359 47.7C41.6193 47.9 41.6693 48.1167 41.6693 48.3333C41.6693 48.7667 41.4859 49.2 41.1859 49.5166C40.8693 49.8166 40.4359 50 40.0026 50Z" fill="#194165"/>
<path d="M45.8307 49.9999C45.3974 49.9999 44.9641 49.8165 44.6474 49.5165C44.4974 49.3665 44.3807 49.1832 44.2974 48.9665C44.2141 48.7665 44.1641 48.5499 44.1641 48.3332C44.1641 48.1165 44.2141 47.8998 44.2974 47.6998C44.3807 47.4832 44.4974 47.2999 44.6474 47.1499C45.0307 46.7665 45.6141 46.5832 46.1474 46.6998C46.2641 46.7165 46.3641 46.7498 46.4641 46.7998C46.5641 46.8332 46.6641 46.8832 46.7641 46.9499C46.8474 46.9999 46.9307 47.0832 47.0141 47.1499C47.3141 47.4665 47.4974 47.8999 47.4974 48.3332C47.4974 48.7665 47.3141 49.1998 47.0141 49.5165C46.6974 49.8165 46.2641 49.9999 45.8307 49.9999Z" fill="#194165"/>
<path d="M54.1693 36.4004H25.8359C25.1526 36.4004 24.5859 35.8337 24.5859 35.1504C24.5859 34.4671 25.1526 33.9004 25.8359 33.9004H54.1693C54.8526 33.9004 55.4193 34.4671 55.4193 35.1504C55.4193 35.8337 54.8526 36.4004 54.1693 36.4004Z" fill="#194165"/>
<path d="M46.6667 57.9163H33.3333C27.25 57.9163 23.75 54.4163 23.75 48.333V34.1663C23.75 28.083 27.25 24.583 33.3333 24.583H46.6667C52.75 24.583 56.25 28.083 56.25 34.1663V48.333C56.25 54.4163 52.75 57.9163 46.6667 57.9163ZM33.3333 27.083C28.5667 27.083 26.25 29.3997 26.25 34.1663V48.333C26.25 53.0997 28.5667 55.4163 33.3333 55.4163H46.6667C51.4333 55.4163 53.75 53.0997 53.75 48.333V34.1663C53.75 29.3997 51.4333 27.083 46.6667 27.083H33.3333Z" fill="#194165"/>
</svg>
