<svg width="80" height="80" viewBox="0 0 80 80" fill="none" xmlns="http://www.w3.org/2000/svg">
<rect width="80" height="80" rx="16" fill="#EBF5FF"/>
<path d="M44.499 57.9159H35.499C27.2656 57.9159 23.7656 54.3992 23.7656 46.1826V38.6992C23.7656 38.0159 24.3323 37.4492 25.0156 37.4492C25.699 37.4492 26.2656 38.0159 26.2656 38.6992V46.1826C26.2656 52.9992 28.6823 55.4159 35.499 55.4159H44.4823C51.299 55.4159 53.7156 52.9992 53.7156 46.1826V38.6992C53.7156 38.0159 54.2823 37.4492 54.9656 37.4492C55.649 37.4492 56.2156 38.0159 56.2156 38.6992V46.1826C56.2323 54.3992 52.7156 57.9159 44.499 57.9159Z" fill="#194165"/>
<path d="M40.0023 41.2497C38.1689 41.2497 36.5023 40.533 35.3189 39.2163C34.1356 37.8997 33.5856 36.183 33.7689 34.3497L34.8856 23.2163C34.9523 22.583 35.4856 22.083 36.1356 22.083H43.9189C44.5689 22.083 45.1023 22.5663 45.1689 23.2163L46.2856 34.3497C46.4689 36.183 45.9189 37.8997 44.7356 39.2163C43.5023 40.533 41.8356 41.2497 40.0023 41.2497ZM37.2523 24.583L36.2523 34.5997C36.1356 35.7163 36.4689 36.7663 37.1689 37.533C38.5856 39.0997 41.4189 39.0997 42.8356 37.533C43.5356 36.7497 43.8689 35.6997 43.7523 34.5997L42.7523 24.583H37.2523Z" fill="#194165"/>
<path d="M50.516 41.2497C47.1327 41.2497 44.116 38.5163 43.766 35.1497L42.5994 23.4663C42.566 23.1163 42.6827 22.7663 42.916 22.4997C43.1494 22.233 43.4827 22.083 43.8494 22.083H48.9327C53.8327 22.083 56.116 24.133 56.7994 29.1663L57.266 33.7997C57.466 35.7663 56.866 37.633 55.5827 39.0497C54.2994 40.4663 52.4993 41.2497 50.516 41.2497ZM45.2327 24.583L46.266 34.8997C46.4827 36.983 48.416 38.7497 50.516 38.7497C51.7827 38.7497 52.916 38.2663 53.7327 37.383C54.5327 36.4997 54.8994 35.3163 54.7827 34.0497L54.316 29.4663C53.7994 25.6997 52.5827 24.583 48.9327 24.583H45.2327Z" fill="#194165"/>
<path d="M29.3971 41.2497C27.4138 41.2497 25.6138 40.4663 24.3304 39.0497C23.0471 37.633 22.4471 35.7663 22.6471 33.7997L23.0971 29.2163C23.7971 24.133 26.0804 22.083 30.9804 22.083H36.0638C36.4138 22.083 36.7471 22.233 36.9971 22.4997C37.2471 22.7663 37.3471 23.1163 37.3138 23.4663L36.1471 35.1497C35.7971 38.5163 32.7804 41.2497 29.3971 41.2497ZM30.9804 24.583C27.3304 24.583 26.1138 25.683 25.5804 29.4997L25.1304 34.0497C24.9971 35.3163 25.3804 36.4997 26.1804 37.383C26.9804 38.2663 28.1138 38.7497 29.3971 38.7497C31.4971 38.7497 33.4471 36.983 33.6471 34.8997L34.6804 24.583H30.9804Z" fill="#194165"/>
<path d="M44.1693 57.9163H35.8359C35.1526 57.9163 34.5859 57.3497 34.5859 56.6663V52.4997C34.5859 48.9997 36.5026 47.083 40.0026 47.083C43.5026 47.083 45.4193 48.9997 45.4193 52.4997V56.6663C45.4193 57.3497 44.8526 57.9163 44.1693 57.9163ZM37.0859 55.4163H42.9193V52.4997C42.9193 50.3997 42.1026 49.583 40.0026 49.583C37.9026 49.583 37.0859 50.3997 37.0859 52.4997V55.4163Z" fill="#194165"/>
</svg>
