<svg width="80" height="80" viewBox="0 0 80 80" fill="none" xmlns="http://www.w3.org/2000/svg">
<rect width="80" height="80" rx="16" fill="#EBF5FF"/>
<path d="M47.1297 56.8341H40.7964C39.863 56.8341 37.8297 56.5508 36.7464 55.4675L31.6964 51.5675L33.2297 49.5841L38.3964 53.5841C38.813 53.9841 39.863 54.3175 40.7964 54.3175H47.1297C48.6297 54.3175 50.2464 53.1175 50.5797 51.7675L54.613 39.5175C54.8797 38.7841 54.8297 38.1175 54.4797 37.6341C54.113 37.1175 53.4464 36.8175 52.6297 36.8175H45.963C45.0964 36.8175 44.2964 36.4508 43.7464 35.8175C43.1797 35.1675 42.9297 34.3008 43.063 33.4008L43.8964 28.0508C44.0964 27.1175 43.463 26.0675 42.563 25.7675C41.7464 25.4675 40.6964 25.9008 40.3297 26.4341L33.4964 36.6008L31.4297 35.2175L38.263 25.0508C39.313 23.4841 41.613 22.7341 43.413 23.4175C45.4964 24.1008 46.8297 26.4008 46.363 28.5341L45.5464 33.7841C45.5297 33.9008 45.5297 34.0675 45.6464 34.2008C45.7297 34.2841 45.8464 34.3341 45.9797 34.3341H52.6464C54.2797 34.3341 55.6964 35.0175 56.5297 36.2008C57.3464 37.3508 57.513 38.8675 56.9797 40.3341L52.9964 52.4675C52.3797 54.8841 49.813 56.8341 47.1297 56.8341Z" fill="#194165"/>
<path d="M28.9688 55.0007H27.3021C24.2187 55.0007 22.7188 53.5507 22.7188 50.584V34.2507C22.7188 31.284 24.2187 29.834 27.3021 29.834H28.9688C32.0521 29.834 33.5521 31.284 33.5521 34.2507V50.584C33.5521 53.5507 32.0521 55.0007 28.9688 55.0007ZM27.3021 32.334C25.4854 32.334 25.2188 32.7673 25.2188 34.2507V50.584C25.2188 52.0673 25.4854 52.5007 27.3021 52.5007H28.9688C30.7854 52.5007 31.0521 52.0673 31.0521 50.584V34.2507C31.0521 32.7673 30.7854 32.334 28.9688 32.334H27.3021Z" fill="#194165"/>
</svg>
